HIERARCHY
ROOT Hips
{
	OFFSET 0.00000 0.00000 0.00000
	CHANNELS 6 Xposition Yposition Zposition Zrotation Yrotation Xrotation 
	JOINT LHipJoint
	{
		OFFSET 0 0 0
		CHANNELS 3 Zrotation Yrotation Xrotation
		JOINT LeftHip
		{
			OFFSET 1.60223 -1.58443 0.78595
			CHANNELS 3 Zrotation Yrotation Xrotation
			JOINT LeftKnee
			{
				OFFSET 2.21690 -6.09089 0.00000
				CHANNELS 3 Zrotation Yrotation Xrotation
				JOINT LeftAnkle
				{
					OFFSET 2.34805 -6.45122 0.00000
					CHANNELS 3 Zrotation Yrotation Xrotation
					JOINT LeftToe
					{
						OFFSET 0.35452 -0.97402 1.38549
						CHANNELS 3 Zrotation Yrotation Xrotation
						End Site
						{
							OFFSET 0.00000 -0.00000 0.82816
						}
					}
				}
			}
		}
	}
	JOINT RHipJoint
	{
		OFFSET 0 0 0
		CHANNELS 3 Zrotation Yrotation Xrotation
		JOINT RightHip
		{
			OFFSET -1.56524 -1.58443 0.78595
			CHANNELS 3 Zrotation Yrotation Xrotation
			JOINT RightKnee
			{
				OFFSET -2.15558 -5.92241 0.00000
				CHANNELS 3 Zrotation Yrotation Xrotation
				JOINT RightAnkle
				{
					OFFSET -2.35077 -6.45870 0.00000
					CHANNELS 3 Zrotation Yrotation Xrotation
					JOINT RightToe
					{
						OFFSET -0.26910 -0.73935 1.33295
						CHANNELS 3 Zrotation Yrotation Xrotation
						End Site
						{
							OFFSET -0.00000 -0.00000 0.75962
						}
					}
				}
			}
		}
	}
	JOINT lowerback
	{
		OFFSET 0 0 0
		CHANNELS 3 Zrotation Yrotation Xrotation
		JOINT Chest
		{
			OFFSET -0.05489 1.97104 -0.02993
			CHANNELS 3 Zrotation Yrotation Xrotation
			JOINT Chest2
			{
				OFFSET -0.00702 1.94230 0.13626
				CHANNELS 3 Zrotation Yrotation Xrotation
				JOINT lowerneck
				{
					OFFSET 0 0 0
					CHANNELS 3 Zrotation Yrotation Xrotation
					JOINT Neck
					{
						OFFSET -0.07858 1.62869 -0.02510
						CHANNELS 3 Zrotation Yrotation Xrotation
						JOINT Head
						{
							OFFSET 0.13978 1.59213 -0.29859
							CHANNELS 3 Zrotation Yrotation Xrotation
							End Site
							{
								OFFSET 0.05353 1.64420 -0.10000
							}
						}
					}
				}
				JOINT LeftCollar
				{
					OFFSET 0 0 0
					CHANNELS 3 Zrotation Yrotation Xrotation
					JOINT LeftShoulder
					{
						OFFSET 3.48263 1.15278 0.52941
CHANNELS 3 Zrotation Xrotation Yrotation
						JOINT LeftElbow
						{
OFFSET 0 -4.592070 -0.000000
CHANNELS 3 Zrotation Xrotation Yrotation
							JOINT LeftWrist
							{
OFFSET 0 -2.981090 -0.000000
CHANNELS 3 Zrotation Xrotation Yrotation
								JOINT lhand
								{
									OFFSET 0 0 0
CHANNELS 3 Zrotation Xrotation Yrotation
									JOINT LFingers
									{
OFFSET 0 -0.480200 -0.000000
CHANNELS 3 Zrotation Xrotation Yrotation
										End Site
										{
OFFSET 0 -0.387150 -0.000000
										}
									}
								}
								JOINT LThumb
								{
OFFSET 0 0.000000 0.000000
CHANNELS 3 Zrotation Xrotation Yrotation
									End Site
									{
OFFSET 0 -0.393060 0.393060
									}
								}
							}
						}
					}
				}
				JOINT RightCollar
				{
					OFFSET 0 0 0
					CHANNELS 3 Zrotation Yrotation Xrotation
					JOINT RightShoulder
					{
						OFFSET -3.52496 1.12722 0.24548
CHANNELS 3 Zrotation Xrotation Yrotation
						JOINT RightElbow
						{
OFFSET 0 -4.765080 -0.000000
CHANNELS 3 Zrotation Xrotation Yrotation
							JOINT RightWrist
							{
OFFSET 0 -2.789020 -0.000000
CHANNELS 3 Zrotation Xrotation Yrotation
								JOINT rhand
								{
									OFFSET 0 0 0
CHANNELS 3 Zrotation Xrotation Yrotation
									JOINT RFingers
									{
OFFSET 0 -0.721300 -0.000000
CHANNELS 3 Zrotation Xrotation Yrotation
										End Site
										{
OFFSET 0 -0.581530 -0.000000
										}
									}
								}
								JOINT RThumb
								{
OFFSET 0 0.000000 0.000000
CHANNELS 3 Zrotation Xrotation Yrotation
									End Site
									{
OFFSET 0 -0.590410 0.590410
									}
								}
							}
						}
					}
				}
			}
		}
	}
}
MOTION
Frames: 4
Frame Time: 0.008333333333333333
25.223400 15.877100 -0.267900 88.783200 -87.928800 -84.231800 0.000000 0.000000 0.000000 -27.290400 -2.876400 -13.122900 2.809100 10.379500 30.214500 2.180700 -3.509100 -27.071500 0.479400 -4.440100 -12.318300 0.000000 0.000000 0.000000 11.779200 6.112500 -14.370800 -2.649100 -10.104000 29.314300 -1.617900 -3.562300 -25.531600 -1.116000 6.711200 -18.862600 -9.863300 3.086800 -1.429300 1.116000 3.984700 -4.514900 6.569800 2.374200 -4.718100 -10.533400 -6.309100 3.368600 11.034900 -9.169300 3.950400 4.917000 -4.692100 1.610300 -0.000000 -0.000000 0.000000 -5.224300 15.693000 15.540200 41.305100 -48.824400 19.416000 13.810900 90.898500 -37.498200 0.000000 0.000000 0.000000 -7.125000 0.000000 0.000000 -27.341500 66.355400 14.542800 -0.000000 -0.000000 0.000000 6.264000 8.935000 12.902000 -27.632600 -38.775800 -9.892800 -12.515100 0.891400 -49.493400 0.000000 0.000000 0.000000 7.125000 0.000000 -0.000000 13.237200 -19.079300 17.203300
25.277281 15.841004 -0.242063 70.331083 -87.668149 -67.532620 0.000000 0.000000 0.000000 -27.652311 -3.148180 -11.443346 2.875884 10.491430 30.583151 2.200356 -3.167459 -27.267161 0.445161 -4.280673 -11.867628 0.000000 0.000000 0.000000 11.700503 5.220303 -12.876565 -2.718827 -10.225273 29.709369 -1.660402 -3.446110 -25.784986 -1.072398 6.582813 -18.485165 -9.448276 2.975392 0.466110 1.001618 3.692116 -3.979140 6.147972 2.215171 -5.125272 -12.042475 -6.296374 3.737358 12.649831 -9.299375 3.769200 5.667145 -4.783929 1.653368 0.000000 0.000000 0.000000 -5.946433 15.389321 15.553209 54.338611 -54.600599 29.676502 -8.895320 98.064390 -35.640981 0.000000 0.000000 0.000000 -7.125000 0.000000 0.000000 -47.508023 59.034865 18.831707 0.000000 0.000000 0.000000 6.559213 8.530397 12.871882 -27.004131 -38.182774 -9.501814 -12.023690 1.102029 -49.791170 0.000000 0.000000 0.000000 7.125000 0.000000 0.000000 13.508872 -19.274122 17.599673
25.324265 15.817019 -0.216711 46.454237 -87.400900 -45.382665 0.000000 0.000000 0.000000 -27.575006 -3.646821 -9.612501 2.933128 10.585912 30.895872 2.226439 -2.835789 -27.505584 0.432530 -4.220515 -11.697932 0.000000 0.000000 0.000000 12.133337 4.617412 -11.322192 -2.821279 -10.399958 30.281818 -1.749366 -3.697073 -26.538926 -0.928194 6.137458 -17.183917 -8.700670 2.282763 2.277625 1.289229 2.679588 -3.328446 6.050254 1.680240 -5.249473 -13.772655 -5.956638 3.187972 14.002685 -8.953134 4.387831 6.356710 -4.610593 2.016092 0.000000 0.000000 0.000000 -7.756074 15.272979 0.534752 31.343266 -42.017223 12.298978 81.629636 -69.323118 26.770490 0.000000 0.000000 0.000000 -7.125000 0.000000 0.000000 30.068449 -37.703908 45.076011 0.000000 0.000000 0.000000 5.994428 7.579636 13.358352 -25.985590 -37.194369 -8.878941 -9.652295 3.818047 -48.924549 0.000000 0.000000 0.000000 7.125000 0.000000 0.000000 14.388768 -18.049159 18.617486
25.383939 15.793998 -0.195367 62.103119 -87.477229 -62.561204 0.000000 0.000000 0.000000 -28.104322 -2.457115 -8.739255 2.986292 10.672758 31.184123 2.250548 -2.717240 -27.686674 0.439812 -4.255545 -11.796740 0.000000 0.000000 0.000000 11.785330 4.775467 -11.098787 -3.146245 -10.927025 32.035297 -1.686347 -3.836836 -26.159182 -0.992054 6.337138 -17.766347 -8.819209 2.227311 3.948743 1.323805 2.482668 -2.676338 6.129951 1.579501 -5.484474 -13.581276 -5.733739 2.789853 13.875671 -8.586094 4.378105 6.287644 -4.410228 2.013220 0.000000 0.000000 0.000000 -8.893621 14.265049 0.900939 31.696629 -42.303858 12.536227 60.628829 -28.397453 -2.276374 0.000000 0.000000 0.000000 -7.125000 0.000000 0.000000 11.405817 11.067707 32.019949 0.000000 0.000000 0.000000 5.639644 7.145268 13.178165 -25.721175 -36.932039 -8.719558 -8.463333 4.441305 -47.928729 0.000000 0.000000 0.000000 7.125000 0.000000 0.000000 14.756685 -16.914500 18.935091
